<?xml version="1.0" standalone="no"?>
<!DOCTYPE svg PUBLIC "-//W3C//DTD SVG 20010904//EN"
 "http://www.w3.org/TR/2001/REC-SVG-20010904/DTD/svg10.dtd">
<svg version="1.0" xmlns="http://www.w3.org/2000/svg"
 width="700.000000pt" height="700.000000pt" viewBox="0 0 700.000000 700.000000"
 preserveAspectRatio="xMidYMid meet">
<metadata>
Created by potrace 1.11, written by Peter Selinger 2001-2013
</metadata>
<g transform="translate(0.000000,700.000000) scale(0.100000,-0.100000)"
fill="#000000" stroke="none">
<path d="M5108 6855 c-2 -1 -34 -5 -73 -9 -248 -21 -499 -102 -720 -230 -152
-88 -308 -224 -407 -354 -53 -70 -132 -215 -148 -271 -7 -24 -8 -23 -19 19
-67 263 -163 463 -283 591 -50 54 -76 69 -115 69 -32 -1 -55 -15 -71 -47 -23
-43 -14 -77 36 -134 62 -72 115 -146 134 -189 9 -19 25 -56 37 -82 62 -139
108 -351 127 -583 5 -63 4 -373 -1 -455 -8 -123 -7 -121 -68 -115 -64 6 -325
6 -387 0 -101 -10 -219 -27 -285 -41 -38 -9 -81 -18 -95 -20 -161 -30 -541
-187 -690 -284 -25 -16 -52 -33 -60 -36 -8 -4 -75 -52 -148 -106 -453 -339
-774 -824 -916 -1383 -24 -95 -49 -250 -62 -375 -7 -76 -8 -371 -1 -415 3 -16
8 -59 12 -95 3 -36 13 -96 20 -135 8 -38 17 -86 20 -105 11 -69 85 -299 130
-406 99 -235 216 -428 399 -653 11 -14 77 -82 146 -151 308 -308 692 -527
1112 -634 133 -34 220 -51 313 -61 28 -3 73 -8 100 -11 53 -7 353 -6 420 0 60
6 137 16 163 22 13 3 43 7 65 10 74 10 303 73 404 110 268 100 538 257 744
434 114 97 322 315 353 369 5 9 16 22 23 29 7 7 46 64 87 125 115 173 221 388
281 572 29 90 71 245 80 293 3 18 8 47 11 65 7 36 9 54 19 147 4 36 9 76 11
90 5 29 5 343 0 380 -2 14 -7 56 -10 93 -4 37 -9 76 -11 85 -1 9 -6 37 -10 62
-48 299 -189 651 -370 925 -293 443 -733 788 -1230 965 -87 31 -213 67 -265
76 -14 3 -34 8 -45 11 -28 10 -32 10 -61 12 -26 1 -26 1 -19 64 5 45 15 316
15 402 0 3 22 -6 49 -19 88 -45 224 -98 326 -128 277 -80 506 -68 718 39 70
35 193 118 232 157 12 11 37 35 56 52 55 49 141 143 309 338 19 22 82 94 139
161 108 124 283 302 410 416 l74 65 -84 48 c-238 135 -428 199 -654 222 -55 5
-263 12 -267 9z"/>
</g>
</svg>
